<svg width="49" height="48" viewBox="0 0 49 48" fill="none" xmlns="http://www.w3.org/2000/svg">
<circle cx="24.5" cy="24" r="24" fill="#0073F0" fill-opacity="0.16"/>
<mask id="mask0_1754_12011" style="mask-type:alpha" maskUnits="userSpaceOnUse" x="8" y="8" width="33" height="32">
<rect x="8.5" y="8" width="32" height="32" fill="#D9D9D9"/>
</mask>
<g mask="url(#mask0_1754_12011)">
<path d="M23.1641 29.3307C23.1641 30.0671 23.761 30.6641 24.4974 30.6641C25.2338 30.6641 25.8307 30.0671 25.8307 29.3307V23.9974C25.8307 23.261 25.2338 22.6641 24.4974 22.6641C23.761 22.6641 23.1641 23.261 23.1641 23.9974V29.3307ZM24.4974 19.9974C24.8752 19.9974 25.1918 19.8696 25.4474 19.6141C25.703 19.3585 25.8307 19.0418 25.8307 18.6641C25.8307 18.2863 25.703 17.9696 25.4474 17.7141C25.1918 17.4585 24.8752 17.3307 24.4974 17.3307C24.1196 17.3307 23.803 17.4585 23.5474 17.7141C23.2918 17.9696 23.1641 18.2863 23.1641 18.6641C23.1641 19.0418 23.2918 19.3585 23.5474 19.6141C23.803 19.8696 24.1196 19.9974 24.4974 19.9974ZM24.4974 37.3307C22.653 37.3307 20.9196 36.9807 19.2974 36.2807C17.6752 35.5807 16.2641 34.6307 15.0641 33.4307C13.8641 32.2307 12.9141 30.8196 12.2141 29.1974C11.5141 27.5752 11.1641 25.8418 11.1641 23.9974C11.1641 22.153 11.5141 20.4196 12.2141 18.7974C12.9141 17.1752 13.8641 15.7641 15.0641 14.5641C16.2641 13.3641 17.6752 12.4141 19.2974 11.7141C20.9196 11.0141 22.653 10.6641 24.4974 10.6641C26.3418 10.6641 28.0752 11.0141 29.6974 11.7141C31.3196 12.4141 32.7307 13.3641 33.9307 14.5641C35.1307 15.7641 36.0807 17.1752 36.7807 18.7974C37.4807 20.4196 37.8307 22.153 37.8307 23.9974C37.8307 25.8418 37.4807 27.5752 36.7807 29.1974C36.0807 30.8196 35.1307 32.2307 33.9307 33.4307C32.7307 34.6307 31.3196 35.5807 29.6974 36.2807C28.0752 36.9807 26.3418 37.3307 24.4974 37.3307ZM24.4974 34.6641C27.4752 34.6641 29.9974 33.6307 32.0641 31.5641C34.1307 29.4974 35.1641 26.9752 35.1641 23.9974C35.1641 21.0196 34.1307 18.4974 32.0641 16.4307C29.9974 14.3641 27.4752 13.3307 24.4974 13.3307C21.5196 13.3307 18.9974 14.3641 16.9307 16.4307C14.8641 18.4974 13.8307 21.0196 13.8307 23.9974C13.8307 26.9752 14.8641 29.4974 16.9307 31.5641C18.9974 33.6307 21.5196 34.6641 24.4974 34.6641Z" fill="#0073F0"/>
</g>
</svg>
